<svg width="1600" height="980" viewBox="0 0 1600 980" fill="none" xmlns="http://www.w3.org/2000/svg">
  <defs>
    <radialGradient id="orb-peach" cx="0" cy="0" r="1" gradientUnits="userSpaceOnUse" gradientTransform="translate(260 120) rotate(90) scale(220 280)">
      <stop stop-color="#F8B28E" stop-opacity="0.42" />
      <stop offset="1" stop-color="#F8B28E" stop-opacity="0" />
    </radialGradient>
    <radialGradient id="orb-teal" cx="0" cy="0" r="1" gradientUnits="userSpaceOnUse" gradientTransform="translate(1360 160) rotate(90) scale(260 320)">
      <stop stop-color="#66C7C5" stop-opacity="0.36" />
      <stop offset="1" stop-color="#66C7C5" stop-opacity="0" />
    </radialGradient>
    <linearGradient id="wave-a" x1="0" y1="320" x2="1600" y2="540" gradientUnits="userSpaceOnUse">
      <stop stop-color="#FFFFFF" stop-opacity="0.34" />
      <stop offset="1" stop-color="#FFFFFF" stop-opacity="0.08" />
    </linearGradient>
    <linearGradient id="wave-b" x1="0" y1="410" x2="1600" y2="600" gradientUnits="userSpaceOnUse">
      <stop stop-color="#A9E2DF" stop-opacity="0.32" />
      <stop offset="1" stop-color="#A9E2DF" stop-opacity="0" />
    </linearGradient>
  </defs>

  <ellipse cx="260" cy="120" rx="280" ry="220" fill="url(#orb-peach)" />
  <ellipse cx="1360" cy="160" rx="320" ry="260" fill="url(#orb-teal)" />

  <path d="M0 314C188 252 386 242 588 300C778 354 982 374 1184 330C1326 298 1459 258 1600 270V0H0V314Z" fill="url(#wave-a)" />
  <path d="M0 414C204 344 408 338 612 400C792 454 1004 478 1220 430C1378 396 1494 358 1600 366V0H0V414Z" fill="url(#wave-b)" />

  <g opacity="0.34" stroke="#FFFFFF" stroke-width="2">
    <path d="M86 346C182 314 286 310 392 332" />
    <path d="M1140 356C1232 328 1326 320 1432 346" />
    <path d="M692 372C760 344 848 346 924 372" />
  </g>
</svg>
